<svg xmlns="http://www.w3.org/2000/svg" width="85.3" height="22.823" viewBox="0 0 85.3 22.823"><defs><style>.a{fill:#f9f9f9;}.b{fill:#facf9c;}.c{fill:#f6a647;}.d{fill:#f28400;}</style></defs><g transform="translate(-0.2 -0.7)"><path class="a" d="M11.115,10.6,6.2,26.758h5.723L16.837,10.6H11.115Z" transform="translate(-1.961 -3.235)"/><path class="a" d="M55.524,17.867l3.9,9.021H54.043l-3.3-7.136-2.222,7.136H42.8L47.647,11H53.37l-1.414,4.713L57.611,11h6.261Z" transform="translate(-13.92 -3.366)"/><path class="a" d="M90.655,12.346a2.282,2.282,0,0,0-.606-.943,1.37,1.37,0,0,0-1.01-.4h-13.4L74.43,14.9H85l-.606,2.087H76.315a2.743,2.743,0,0,0-1.212.337,7.4,7.4,0,0,0-1.212.943,6.033,6.033,0,0,0-1.01,1.279,6.289,6.289,0,0,0-.673,1.346L71.6,22.984a4.341,4.341,0,0,0-.2,1.346,3.92,3.92,0,0,0,.2,1.279,2.282,2.282,0,0,0,.606.943,1.322,1.322,0,0,0,1.01.337h13.8L90.655,14.9a4.341,4.341,0,0,0,.2-1.346A3.812,3.812,0,0,0,90.655,12.346ZM82.576,22.984H77.392L78,20.9h5.184Z" transform="translate(-23.265 -3.366)"/><g transform="translate(14.742 7.634)"><path class="a" d="M38.025,11l-1.212,3.9H31.158L27.523,26.889H21.8L25.436,14.9a4.985,4.985,0,0,1,3.77-3.9h8.819Z" transform="translate(-21.8 -11)"/></g><path class="a" d="M115.325,11l-1.212,3.9h-5.655l-3.636,11.984H99.1L102.736,14.9a4.985,4.985,0,0,1,3.77-3.9h8.82Z" transform="translate(-32.316 -3.366)"/><path class="b" d="M120.561.7,119.08,5.547H107.5L108.981.7Z" transform="translate(-35.061)"/><path class="c" d="M99.276.7,97.8,5.547h-20L79.281.7Z" transform="translate(-25.356)"/><path class="d" d="M66.374.7,64.893,5.547H38.3L39.781.7Z" transform="translate(-12.449)"/><path class="a" d="M1.681.7.2,5.547H23.764L25.177.7Z" transform="translate(0)"/></g></svg>