<svg xmlns="http://www.w3.org/2000/svg" width="30.647" height="21.262" viewBox="0 0 30.647 21.262"><defs><style>.a{fill:#424242;}</style></defs><path class="a" d="M55.079,110.874A7.155,7.155,0,0,0,52.7,110.5c-.076-.006-.409.362-.461.426-.164.193-.31.4-.485.619-.2-.485-.362-.941-.572-1.373-.432-.87-.876-1.735-1.344-2.588a2.835,2.835,0,0,0-2.161-1.46,40.489,40.489,0,0,0-7.022-.625h-.035a41.017,41.017,0,0,0-7.022.625,2.859,2.859,0,0,0-2.161,1.46c-.467.853-.911,1.717-1.344,2.588-.21.432-.374.888-.572,1.373-.175-.228-.321-.432-.485-.619-.058-.064-.386-.432-.461-.426a7.131,7.131,0,0,0-2.378.374c-.794.31-1.2,1.186-.572,1.752a2.037,2.037,0,0,0,.754.485c.549.158.771.111.9.169a3.438,3.438,0,0,0-1.133,1.6,9.411,9.411,0,0,0-.321,1.332c-.2,1.268.076,2.547-.047,3.815a17.587,17.587,0,0,0,.24,5.859c.152.508.356.87.888.87,1.3.006,2.611.006,3.914,0a.845.845,0,0,0,.894-.876c.006-.117,0-.929,0-1.034a84.233,84.233,0,0,1,8.914-.292h.035a84.389,84.389,0,0,1,8.914.292c0,.105-.006.923,0,1.034a.845.845,0,0,0,.894.876c1.3.006,2.611.006,3.914,0,.532,0,.736-.362.888-.87a17.587,17.587,0,0,0,.24-5.859c-.123-1.268.152-2.547-.047-3.815a8.84,8.84,0,0,0-.321-1.332,3.382,3.382,0,0,0-1.133-1.6c.129-.058.35-.012.9-.169a2.064,2.064,0,0,0,.754-.485C56.282,112.06,55.873,111.184,55.079,110.874Zm-26.778,7.4a7.837,7.837,0,0,1-.45-.917c-.251-.613.082-1,.835-.929q2.226.219,4.445.5a1.884,1.884,0,0,1,1.624,1.571c.029.368-.263.613-.777.619-.7.012-1.4,0-2.1,0H29.913A1.677,1.677,0,0,1,28.3,118.276Zm12.314-6.759q-4.8,0-9.6.31a1.61,1.61,0,0,1,.047-.175,20.957,20.957,0,0,1,1.653-3.371,1.429,1.429,0,0,1,1.022-.689,36.759,36.759,0,0,1,6.87-.637h.035a36.273,36.273,0,0,1,6.87.637,1.429,1.429,0,0,1,1.022.689,20.247,20.247,0,0,1,1.653,3.371,1.122,1.122,0,0,1,.047.175q-4.8-.307-9.6-.31Zm12.8,5.842a9.507,9.507,0,0,1-.45.917,1.7,1.7,0,0,1-1.606.853H49.389c-.7,0-1.4.012-2.1,0-.52-.012-.806-.251-.777-.619a1.878,1.878,0,0,1,1.624-1.571q2.217-.28,4.445-.5C53.332,116.36,53.665,116.745,53.414,117.359Z" transform="translate(-25.317 -105.5)"/></svg>