<svg xmlns="http://www.w3.org/2000/svg" xmlns:xlink="http://www.w3.org/1999/xlink" width="49.001" height="15" viewBox="0 0 49.001 15"><defs><style>.a{fill:#fff;}.b{opacity:0.76;isolation:isolate;}.c{clip-path:url(#a);}.d{fill:#00579f;}.e{fill:#f4a622;}</style><clipPath id="a"><rect class="a" width="49" height="15"/></clipPath></defs><g class="b" transform="translate(0.001)"><g class="c" transform="translate(-0.001)"><path class="d" d="M21.233,16.8H17.264l2.483-14.52h3.969Z" transform="translate(0 -2.018)"/><path class="d" d="M35.622,2.618A10.274,10.274,0,0,0,32.062,2c-3.92,0-6.68,1.977-6.7,4.8-.033,2.086,1.976,3.244,3.479,3.939,1.536.711,2.058,1.174,2.058,1.808-.016.973-1.241,1.421-2.384,1.421a8.279,8.279,0,0,1-3.724-.772l-.523-.232-.556,3.259A12.689,12.689,0,0,0,28.142,17c4.165,0,6.876-1.947,6.909-4.959.016-1.653-1.045-2.919-3.332-3.954C30.33,7.422,29.48,6.974,29.48,6.294c.016-.618.719-1.251,2.286-1.251a7.074,7.074,0,0,1,2.957.556l.359.154Z" transform="translate(0 -2)"/><path class="d" d="M40.9,11.657c.327-.834,1.585-4.063,1.585-4.063-.016.031.326-.85.522-1.39l.277,1.251s.752,3.476.915,4.2Zm4.9-9.376h-3.07a1.971,1.971,0,0,0-2.075,1.2L34.758,16.8h4.165l.833-2.178h5.1c.114.51.474,2.178.474,2.178H49Z" transform="translate(0 -2.018)"/><path class="d" d="M13.948,2.281l-3.887,9.9-.425-2.008A11.3,11.3,0,0,0,4.148,4.088l3.561,12.7h4.2L18.146,2.281Z" transform="translate(0 -2.018)"/><path class="e" d="M6.452,2.281H.065L0,2.574c4.982,1.2,8.281,4.11,9.637,7.6L8.248,3.5C8.02,2.574,7.317,2.311,6.452,2.281Z" transform="translate(0 -2.018)"/></g></g></svg>