<svg xmlns="http://www.w3.org/2000/svg" width="33" height="19" viewBox="0 0 33 19"><defs><style>.a{opacity:0.76;isolation:isolate;}.b{fill:#ff5f00;}.c{fill:#eb001b;}.d{fill:#f79e1b;}</style></defs><g class="a"><path class="b" d="M81.962,2.139H73.039V16.861h8.923Z" transform="translate(-61)"/><path class="c" d="M73.6,9.5a9.3,9.3,0,0,1,3.881-7.468A10.613,10.613,0,0,0,71.2,0C65.56,0,61,4.249,61,9.5S65.56,19,71.2,19a10.613,10.613,0,0,0,6.288-2.032A9.267,9.267,0,0,1,73.6,9.5Z" transform="translate(-61)"/><path class="d" d="M94,9.5c0,5.251-4.56,9.5-10.2,9.5a10.613,10.613,0,0,1-6.288-2.032A9.228,9.228,0,0,0,81.394,9.5a9.3,9.3,0,0,0-3.881-7.468A10.613,10.613,0,0,1,83.8,0C89.439,0,94,4.275,94,9.5Z" transform="translate(-61)"/></g></svg>