<?xml version="1.0" encoding="utf-8"?>
<!-- Svg Vector Icons : http://www.onlinewebfonts.com/icon -->
<!DOCTYPE svg PUBLIC "-//W3C//DTD SVG 1.1//EN" "http://www.w3.org/Graphics/SVG/1.1/DTD/svg11.dtd">
<svg version="1.1" xmlns="http://www.w3.org/2000/svg" xmlns:xlink="http://www.w3.org/1999/xlink" x="0px" y="0px" viewBox="0 0 1000 1000" enable-background="new 0 0 1000 1000" xml:space="preserve">
<metadata> Svg Vector Icons : http://www.onlinewebfonts.com/icon </metadata>
<g><path d="M500,10.9c-270.2,0-490,219-490,489.4c0,270.5,219.8,488.9,490,488.9s490-218.4,490-488.9C990,229.8,770.2,10.9,500,10.9z M500,29.1c261.7,0,473.1,211.4,473.1,471.2c0,259.8-211.4,470.6-473.1,470.6c-261.7,0-473.1-210.8-473.1-470.6C26.9,240.4,238.3,29.1,500,29.1z"/><path d="M254,290.8l1.1,41l476.6,3l-1.7-44.7L254,290.8z"/><path d="M261.1,491.5l1.1,41l476.6,3l-1.7-44.7L261.1,491.5z"/><path d="M266.4,684.9l1.1,41l476.6,3l-1.7-44.7L266.4,684.9z"/></g>
</svg>