<?xml version="1.0" encoding="utf-8"?>
<!-- Generator: Adobe Illustrator 21.0.0, SVG Export Plug-In . SVG Version: 6.00 Build 0)  -->
<svg version="1.1" id="Capa_1" xmlns="http://www.w3.org/2000/svg" xmlns:xlink="http://www.w3.org/1999/xlink" x="0px" y="0px"
	 viewBox="0 0 450 450" style="enable-background:new 0 0 450 450;" xml:space="preserve">
<style type="text/css">
	.st0{fill:#CECECE;}
</style>
<g>
	<path class="st0" d="M448.6,177.1c0,0-42.1-56.3-42.2-56.3c0,0-0.9-1.6-3.8-2.5L227,68.6c-1.3-0.4-2.7-0.4-3.9,0L47.4,118.2
		c0,0-2.4,0.7-3.8,2.6c-0.6,0.8-42.1,56.2-42.1,56.2c-1.4,1.9-1.8,4.3-1.1,6.5c0.7,2.2,2.4,4,4.6,4.7l37.2,12.6v100.9
		c0,2.9,1.8,5.6,4.5,6.7l175.6,72.6c0.5,0.2,1.2,0.6,2.8,0.6s2.8-0.6,2.8-0.6l175.6-72.6c2.7-1.1,4.5-3.8,4.5-6.7V200.9l37.2-12.6
		c2.2-0.7,3.9-2.5,4.6-4.7C450.4,181.4,449.9,179,448.6,177.1z M19.1,177.8l33.1-44.3l13.4,3.7L141,158l71.3,19.7l-41.8,51.6
		L19.1,177.8z M217.7,363.5L56.6,297v-91.1l114,38.7c0.8,0.3,1.6,0.4,2.3,0.4c2.1,0,4.2-1,5.6-2.7l39.1-48.2L217.7,363.5
		L217.7,363.5z M225,166.1L76.4,125.1l148.6-42l148.6,42L225,166.1z M393.4,297l-161.1,66.6V194.1l39.1,48.2
		c1.4,1.7,3.5,2.7,5.6,2.7c0.8,0,1.6-0.1,2.3-0.4l114-38.7L393.4,297L393.4,297z M279.5,229.2l-41.8-51.6l160.2-44.1l33.1,44.3
		L279.5,229.2z"/>
</g>
</svg>
