<?xml version="1.0" encoding="utf-8"?>
<!-- Generator: Adobe Illustrator 21.0.0, SVG Export Plug-In . SVG Version: 6.00 Build 0)  -->
<svg version="1.1" id="Layer_1" xmlns="http://www.w3.org/2000/svg" xmlns:xlink="http://www.w3.org/1999/xlink" x="0px" y="0px"
	 viewBox="0 0 32 32" style="enable-background:new 0 0 32 32;" xml:space="preserve">
<path d="M0,6v1v17v1h1h3.2c0.4,1.7,2,3,3.8,3s3.4-1.3,3.8-3H20h1.2c0.4,1.7,2,3,3.8,3s3.4-1.3,3.8-3H31h1v-1v-7v-0.2l-0.1-0.2l-2-6
	L29.7,10H29h-8V7V6h-1H1H0z M2,8h17v2v1v12h-7.2c-0.4-1.7-2-3-3.8-3s-3.4,1.3-3.8,3H2V8z M21,12h7.3l1.7,5.1V23h-1.2
	c-0.4-1.7-2-3-3.8-3s-3.4,1.3-3.8,3H21V12z M8,22c1.1,0,2,0.9,2,2s-0.9,2-2,2s-2-0.9-2-2S6.9,22,8,22z M25,22c1.1,0,2,0.9,2,2
	s-0.9,2-2,2s-2-0.9-2-2S23.9,22,25,22z"/>
</svg>
