<svg xmlns="http://www.w3.org/2000/svg" width="32.01" height="25.81" viewBox="0 0 32.01 25.81"><defs><style>.a{fill:#7b7b7b;}</style></defs><path class="a" d="M0,.561V17.97a.562.562,0,0,0,.562.562H13.65a3.726,3.726,0,0,0,.934,2.475,34.122,34.122,0,0,1,1.678,3.124v2.263H14.017a.561.561,0,0,0-.561.561v4.493a.562.562,0,0,0,.561.562H25.248a.562.562,0,0,0,.562-.562V26.955a.562.562,0,0,0-.562-.561H24.125V15.209a4.836,4.836,0,0,0-2.158-4.032L17.386,8.123V.561A.562.562,0,0,0,16.825,0H.561A.562.562,0,0,0,0,.561ZM24.687,27.517v3.369H14.579V27.517ZM17.948,13.478v4.037a.562.562,0,1,0,1.123,0V13.478a2.243,2.243,0,0,0-1.685-2.166V9.473l3.958,2.639A3.716,3.716,0,0,1,23,15.209V26.394H17.386V23.949a.562.562,0,0,0-.252-.573c-.7-1.347-.574-.96-1.433-2.6a.562.562,0,0,0-.165-.4,2.619,2.619,0,0,1,0-3.7.562.562,0,0,0,.165-.4V13.478a1.123,1.123,0,0,1,2.246,0ZM1.114,1.127l15.149,0V11.311a2.246,2.246,0,0,0-1.685,2.166v2.583a3.686,3.686,0,0,0-.745,1.348L1.06,17.52Zm.009,0Z" transform="translate(32.01) rotate(90)"/></svg>