<?xml version="1.0" encoding="utf-8"?>
<!-- Generator: Adobe Illustrator 21.0.0, SVG Export Plug-In . SVG Version: 6.00 Build 0)  -->
<svg version="1.1" id="Capa_1" xmlns="http://www.w3.org/2000/svg" xmlns:xlink="http://www.w3.org/1999/xlink" x="0px" y="0px"
	 viewBox="0 0 863 863" style="enable-background:new 0 0 863 863;" xml:space="preserve">
<g>
	<g>
		<path d="M696.1,100.2l-24.8,97.3l-17.4,68h0l-63.2,247.3H128.3L69.2,197.3l-69.2,0l71.9,383.5h571.7L739,206.9l9.9-38.7H863v-68
			H696.1z"/>
		<path d="M553.6,606.6H162.8c-58,0-105.3,47.2-105.3,105.3c0,58,47.2,105.3,105.3,105.3c58.1,0,105.3-47.2,105.3-105.3
			c0-13.1-2.4-25.7-6.8-37.3h193.8c-4.4,11.6-6.8,24.2-6.8,37.3c0,58,47.2,105.3,105.3,105.3c58,0,105.3-47.2,105.3-105.3
			C658.8,653.8,611.6,606.6,553.6,606.6z M162.8,749.2c-20.6,0-37.3-16.7-37.3-37.3s16.7-37.3,37.3-37.3s37.3,16.7,37.3,37.3
			S183.4,749.2,162.8,749.2z M553.6,749.2c-20.6,0-37.3-16.7-37.3-37.3s16.7-37.3,37.3-37.3c20.5,0,37.3,16.7,37.3,37.3
			S574.1,749.2,553.6,749.2z"/>
	</g>
</g>
</svg>
